<svg width="1440" height="200" viewBox="0 0 1440 200" fill="none" xmlns="http://www.w3.org/2000/svg">
<rect width="1440" height="200" fill="#121414"/>
<path d="M904.217 80.3516C904.217 80.3516 909.15 90.8808 909.15 91.4366C909.15 91.9925 904.773 94.3735 903.939 94.8738C903.292 95.2422 902.625 95.5747 901.942 95.8697L902.442 100.747C902.442 100.747 909.979 99.0289 913.138 97.3104C916.298 95.5918 916.186 93.6509 915.455 90.7696C914.723 87.8883 909.854 76.7523 909.854 76.7523L904.217 80.3516Z" fill="#E1E1E6"/>
<g style="mix-blend-mode:multiply" opacity="0.5">
<path d="M913.124 97.3104C916.284 95.5918 916.173 93.6509 915.441 90.7696C914.709 87.8883 909.84 76.7523 909.84 76.7523L909.053 77.2526L908.803 77.7159C908.803 77.7159 913.347 88.8704 913.62 92.5854C913.805 95.0822 908.779 98.1951 905.458 99.9739C907.922 99.3208 911.276 98.3156 913.124 97.3104Z" fill="#BBBBBF"/>
</g>
<path d="M904.217 80.3516C904.217 80.3516 909.15 90.8808 909.15 91.4366C909.15 91.9925 904.773 94.3735 903.939 94.8738C903.292 95.2422 902.625 95.5747 901.942 95.8697L902.442 100.747C902.442 100.747 909.979 99.0289 913.138 97.3104C916.298 95.5918 916.186 93.6509 915.455 90.7696C914.723 87.8883 909.854 76.7523 909.854 76.7523L904.217 80.3516Z" stroke="#263238" stroke-linecap="round" stroke-linejoin="round"/>
<path d="M868.622 78.0262C868.622 78.0262 865.023 91.2143 864.917 93.5443C864.81 95.8743 872.064 100.47 872.328 100.747C872.592 101.025 871.916 92.7337 871.916 92.7337L874.376 80.6898L868.622 78.0262Z" fill="#E1E1E6"/>
<g style="mix-blend-mode:multiply" opacity="0.5">
<path d="M870.271 79.1055L870.193 78.7488L868.622 78.0262C868.622 78.0262 865.023 91.2143 864.917 93.5443C864.81 95.8743 872.064 100.47 872.328 100.747C872.435 100.859 872.393 99.6172 872.305 98.0839C870.146 96.2542 867.047 93.6786 866.686 92.5947" fill="#BBBBBF"/>
</g>
<path d="M868.622 78.0262C868.622 78.0262 865.023 91.2143 864.917 93.5443C864.81 95.8743 872.064 100.47 872.328 100.747C872.592 101.025 871.916 92.7337 871.916 92.7337L874.376 80.6898L868.622 78.0262Z" stroke="#263238" stroke-linecap="round" stroke-linejoin="round"/>
<path d="M885.525 64.7779C885.525 64.7779 884.136 65.7785 881.426 65.8897C878.716 66.0008 878.586 64.0368 875.219 64.0368C871.138 64.0368 866.019 76.9469 866.019 76.9469C866.019 76.9469 868.567 79.4437 871.064 80.4952C872.445 81.1003 873.897 81.5283 875.385 81.7691L875.775 90.2508H903.262L903.591 81.7691L912.184 76.1965C912.184 76.1965 907.969 68.6598 905.921 65.8341C903.874 63.0084 900.432 64.0599 899.381 64.7779C898.329 65.4959 895.212 65.6673 894.063 65.5005C892.564 65.1689 891.083 64.7623 889.625 64.2823C889.625 64.2823 887.855 62.8092 885.525 64.7779Z" fill="#EBA417" stroke="#263238" stroke-linecap="round" stroke-linejoin="round"/>
<path fill-rule="evenodd" clip-rule="evenodd" d="M875.555 81.7841L875.805 67.729L872.534 80.9434L875.555 81.7841Z" fill="#BC8312"/>
<path fill-rule="evenodd" clip-rule="evenodd" d="M899.907 90.2861V73.7714C899.907 69.581 896.364 68.2825 891.639 66.5505C889.995 65.9478 888.208 65.2927 886.377 64.4451L886.195 64.409C888.253 63.0678 889.754 64.3176 889.754 64.3176C891.212 64.7976 892.693 65.2042 894.192 65.5359C895.341 65.7026 898.458 65.5312 899.51 64.8132C900.561 64.0952 904.003 63.0437 906.05 65.8694C908.098 68.6951 912.313 76.2318 912.313 76.2318L903.72 81.8044L903.392 90.2861H899.907Z" fill="#BC8312"/>
<path d="M875.663 67.7704L875.552 81.8478" stroke="#263238" stroke-width="0.5" stroke-linecap="round" stroke-linejoin="round"/>
<path d="M876.659 69.0489C876.659 69.0489 877.048 75.9185 878.512 79.7448" stroke="#263238" stroke-width="0.5" stroke-linecap="round" stroke-linejoin="round"/>
<path d="M878.767 80.296C879.083 81.2298 879.472 82.1374 879.93 83.0105" stroke="#263238" stroke-width="0.5" stroke-linecap="round" stroke-linejoin="round"/>
<path d="M877.544 68.2707C878.07 70.7686 878.812 73.2159 879.763 75.585" stroke="#263238" stroke-width="0.5" stroke-linecap="round" stroke-linejoin="round"/>
<path d="M901.437 69.489C901.437 69.489 900.108 74.9226 898.941 77.3638" stroke="#263238" stroke-width="0.5" stroke-linecap="round" stroke-linejoin="round"/>
<path d="M903.591 81.7922L903.536 70.8184" stroke="#263238" stroke-width="0.5" stroke-linecap="round" stroke-linejoin="round"/>
<path d="M902.984 71.0407C902.984 71.0407 901.984 77.9891 899.547 81.6255" stroke="#263238" stroke-width="0.5" stroke-linecap="round" stroke-linejoin="round"/>
<path d="M901.766 80.2405C901.766 80.2405 900.654 82.3482 899.881 83.4553" stroke="#263238" stroke-width="0.5" stroke-linecap="round" stroke-linejoin="round"/>
<path d="M883.974 65.6117C883.974 65.6117 884.752 70.3783 885.859 72.8149C886.966 75.2515 888.907 75.7518 890.57 75.0338C892.233 74.3158 893.451 70.7628 893.349 66.2324" stroke="#263238" stroke-width="0.5" stroke-linecap="round" stroke-linejoin="round"/>
<path d="M880.041 55.6338C880.041 55.6338 878.985 53.8087 878.156 54.7491C877.326 55.6894 878.823 57.8527 879.652 58.5707C880.481 59.2887 881.092 58.8486 881.041 58.075C880.99 57.3014 880.041 55.6338 880.041 55.6338Z" fill="#E1E1E6" stroke="#263238" stroke-linecap="round" stroke-linejoin="round"/>
<path d="M880.041 55.6338C880.041 55.6338 878.985 53.8087 878.156 54.7491C877.326 55.6894 878.823 57.8527 879.652 58.5707C880.481 59.2887 881.092 58.8486 881.041 58.075C880.99 57.3014 880.041 55.6338 880.041 55.6338Z" stroke="#263238" stroke-linecap="round" stroke-linejoin="round"/>
<path d="M896.805 55.6338C896.805 55.6338 897.857 53.8087 898.69 54.7491C899.524 55.6894 898.023 57.8527 897.194 58.5707C896.365 59.2887 895.749 58.8486 895.805 58.075C895.86 57.3014 896.805 55.6338 896.805 55.6338Z" fill="#E1E1E6" stroke="#263238" stroke-linecap="round" stroke-linejoin="round"/>
<path d="M896.805 55.6338C896.805 55.6338 897.857 53.8087 898.69 54.7491C899.524 55.6894 898.023 57.8527 897.194 58.5707C896.365 59.2887 895.749 58.8486 895.805 58.075C895.86 57.3014 896.805 55.6338 896.805 55.6338Z" stroke="#263238" stroke-linecap="round" stroke-linejoin="round"/>
<path d="M885.025 64.3935C885.548 66.7588 886.215 69.09 887.022 71.3743C888.022 73.8665 889.903 73.8664 890.681 72.2591C891.459 70.6517 891.955 64.6621 891.955 64.6621C891.955 64.6621 886.744 65.3894 885.025 64.3935Z" fill="#E1E1E6" stroke="#263238" stroke-linecap="round" stroke-linejoin="round"/>
<path d="M880.152 56.2453C880.152 56.2453 881.593 61.3408 884.321 64.3379C887.049 67.3349 888.027 68.0437 889.477 67.826C890.927 67.6082 892.469 65.7229 894.628 61.804C896.786 57.8851 896.944 54.8788 897.125 54.6008C897.305 54.3229 896.661 48.7827 893.576 46.3971C890.491 44.0115 887.036 42.9646 884.043 45.5679C881.051 48.1712 879.151 52.419 880.152 56.2453Z" fill="#E1E1E6"/>
<path d="M880.152 56.2453C880.152 56.2453 881.593 61.3408 884.321 64.3379C887.049 67.3349 888.027 68.0437 889.477 67.826C890.927 67.6082 892.469 65.7229 894.628 61.804C896.786 57.8851 896.944 54.8788 897.125 54.6008C897.305 54.3229 896.661 48.7827 893.576 46.3971C890.491 44.0115 887.036 42.9646 884.043 45.5679C881.051 48.1712 879.151 52.419 880.152 56.2453Z" stroke="#263238" stroke-linecap="round" stroke-linejoin="round"/>
<path d="M889.463 58.9042C889.291 59.9862 889.198 61.0792 889.185 62.1746C889.241 63.2817 889.574 63.6152 889.074 63.7264C888.573 63.8376 888.022 63.0594 888.022 63.0594" stroke="#263238" stroke-linecap="round" stroke-linejoin="round"/>
<path d="M883.918 59.7936C884.239 60.0255 884.623 60.155 885.019 60.1649C885.415 60.1748 885.805 60.0648 886.137 59.8492" stroke="#263238" stroke-linecap="round" stroke-linejoin="round"/>
<path d="M890.959 59.7936C891.28 60.0251 891.662 60.1543 892.058 60.1643C892.453 60.1742 892.842 60.0644 893.173 59.8492" stroke="#263238" stroke-linecap="round" stroke-linejoin="round"/>
<path d="M887.457 57.9268C887.457 57.9268 886.401 55.3189 882.913 56.5372" stroke="#263238" stroke-linecap="round" stroke-linejoin="round"/>
<path d="M890.362 57.6072C890.362 57.6072 891.246 55.0548 894.406 56.551" stroke="#263238" stroke-linecap="round" stroke-linejoin="round"/>
<path d="M888.129 59.9835C888.129 61.4103 886.494 62.5637 884.474 62.5637C882.454 62.5637 880.814 61.4103 880.814 59.9835C880.814 58.5568 882.343 57.9639 884.363 57.9639C886.382 57.9639 888.129 58.5614 888.129 59.9835Z" stroke="#263238" stroke-linecap="round" stroke-linejoin="round"/>
<path d="M896.555 59.9835C896.555 61.4103 894.915 62.5637 892.895 62.5637C890.876 62.5637 889.241 61.4103 889.241 59.9835C889.241 58.5568 890.765 57.9639 892.784 57.9639C894.804 57.9639 896.555 58.5614 896.555 59.9835Z" stroke="#263238" stroke-linecap="round" stroke-linejoin="round"/>
<path d="M893.252 41.6166C893.803 41.5008 894.985 41.0468 895.781 39.1985C895.794 39.1706 895.8 39.1405 895.801 39.1099C895.801 39.0794 895.796 39.049 895.785 39.0206C895.773 38.9922 895.757 38.9663 895.736 38.9444C895.714 38.9224 895.689 38.9049 895.661 38.8928C895.604 38.8693 895.541 38.8687 895.484 38.8912C895.427 38.9136 895.38 38.9574 895.355 39.0133C894.623 40.7087 893.576 41.0839 893.141 41.1673C893.92 40.2242 894.35 39.0414 894.359 37.8181C894.359 34.6033 891.381 32 887.707 32C884.034 32 881.055 34.6033 881.055 37.8181C881.058 38.9921 881.449 40.1322 882.167 41.0607C881.468 41.0237 880.286 41.3201 878.79 43.0665C878.747 43.1106 878.723 43.1695 878.723 43.2309C878.723 43.2923 878.747 43.3513 878.79 43.3954C878.833 43.4311 878.887 43.4507 878.943 43.451C878.977 43.451 879.01 43.4435 879.04 43.4291C879.071 43.4147 879.098 43.3937 879.119 43.3676C881.032 41.1395 882.297 41.5147 882.552 41.6166C882.119 41.8545 881.714 42.1387 881.343 42.4643C879.207 44.3867 877.905 48.023 878.072 51.0525C878.26 53.0618 878.988 54.9828 880.18 56.6112C881.731 55.5012 883.017 54.0617 883.946 52.3959C884.638 51.1723 885.257 49.9085 885.799 48.6113C885.799 49.9686 885.975 51.6084 886.688 52.7804C887.203 53.7061 887.957 54.4765 888.871 55.0111C889.785 55.5456 890.826 55.8247 891.886 55.8191C892.251 55.8244 892.616 55.7886 892.974 55.7126C893.006 55.7047 893.035 55.6903 893.061 55.6704C893.086 55.6505 893.107 55.6254 893.122 55.5968C894.91 55.9766 896.689 55.9442 896.963 55.5643C897.403 54.9575 898.028 53.0629 898.236 50.7468C898.616 46.8186 896.143 43.4093 893.252 41.6166ZM887.119 52.4978C886.22 51.0294 886.248 48.6345 886.355 47.2587L886.415 47.1012C886.458 48.5162 886.818 49.9034 887.47 51.16C888.122 52.4166 889.049 53.5102 890.181 54.36C890.806 54.7923 891.5 55.1164 892.233 55.3188C891.098 55.3976 888.763 55.1799 887.119 52.4978V52.4978Z" fill="#263238"/>
<path d="M887.198 45.2066C887.198 45.2066 886.818 48.0138 890.385 50.7653C893.952 53.5169 897.333 52.4329 897.333 52.4329" stroke="#E1E1E6" stroke-width="0.5" stroke-linecap="round" stroke-linejoin="round"/>
<path d="M887.721 44.2802C887.721 44.2802 891.478 49.7509 896.666 48.3241" stroke="#E1E1E6" stroke-width="0.5" stroke-linecap="round" stroke-linejoin="round"/>
<path d="M885.864 42.4597C885.271 42.1589 884.607 42.0266 883.945 42.0772C883.282 42.1279 882.647 42.3595 882.107 42.7469C880.11 44.0763 879.11 47.217 879.11 47.217" stroke="#E1E1E6" stroke-width="0.5" stroke-linecap="round" stroke-linejoin="round"/>
<path d="M885.961 43.9837C885.961 43.9837 884.344 43.5529 883.344 44.5534C882.856 44.9954 882.439 45.5093 882.107 46.0775" stroke="#E1E1E6" stroke-width="0.5" stroke-linecap="round" stroke-linejoin="round"/>
<path d="M852.023 102.894L851.786 153.182C851.786 153.34 851.86 153.492 851.99 153.604C852.12 153.716 852.297 153.779 852.482 153.779V153.779C852.662 153.779 852.834 153.719 852.963 153.611C853.092 153.504 853.167 153.357 853.172 153.203L854.843 102.965L852.023 102.894Z" fill="#E1E1E6" stroke="#263238" stroke-linecap="round" stroke-linejoin="round"/>
<path d="M848.381 114.573L848.174 166.529C848.174 166.608 848.19 166.686 848.221 166.758C848.253 166.831 848.299 166.897 848.358 166.953C848.417 167.008 848.487 167.052 848.564 167.082C848.641 167.112 848.723 167.127 848.806 167.126V167.126C848.97 167.126 849.127 167.067 849.244 166.96C849.362 166.854 849.432 166.708 849.439 166.554L850.953 114.639L848.381 114.573Z" fill="#E1E1E6" stroke="#263238" stroke-linecap="round" stroke-linejoin="round"/>
<path d="M927.702 102.894L927.918 153.182C927.918 153.26 927.902 153.338 927.871 153.41C927.84 153.483 927.793 153.549 927.735 153.604C927.677 153.66 927.607 153.704 927.531 153.734C927.454 153.764 927.372 153.779 927.289 153.779V153.779C927.125 153.779 926.967 153.719 926.849 153.612C926.731 153.504 926.662 153.358 926.656 153.203L925.139 102.965L927.702 102.894Z" fill="#E1E1E6" stroke="#263238" stroke-linecap="round" stroke-linejoin="round"/>
<path d="M931.315 114.573L931.53 166.529C931.53 166.608 931.514 166.686 931.483 166.758C931.451 166.831 931.405 166.897 931.346 166.953C931.287 167.008 931.217 167.052 931.14 167.082C931.063 167.112 930.981 167.127 930.898 167.126V167.126C930.735 167.126 930.578 167.067 930.461 166.96C930.344 166.853 930.276 166.708 930.27 166.554L928.751 114.639L931.315 114.573Z" fill="#E1E1E6" stroke="#263238" stroke-linecap="round" stroke-linejoin="round"/>
<path d="M874.138 116.797L874.017 162.742C874.004 162.856 874.036 162.972 874.107 163.063C874.178 163.155 874.281 163.216 874.396 163.233V163.233C874.508 163.218 874.61 163.161 874.681 163.073C874.752 162.986 874.787 162.875 874.779 162.763L875.682 116.851L874.138 116.797Z" fill="#E1E1E6" stroke="#263238" stroke-linecap="round" stroke-linejoin="round"/>
<path d="M905.833 115.129L905.965 155.587C905.976 155.685 905.943 155.783 905.872 155.86C905.801 155.938 905.698 155.989 905.583 156.004C905.469 155.989 905.366 155.938 905.296 155.86C905.226 155.782 905.193 155.685 905.206 155.587L904.3 115.162L905.833 115.129Z" fill="#E1E1E6" stroke="#263238" stroke-linecap="round" stroke-linejoin="round"/>
<path d="M873.602 115.129L873.735 155.587C873.746 155.685 873.712 155.783 873.641 155.86C873.57 155.938 873.467 155.989 873.353 156.004C873.239 155.989 873.136 155.938 873.065 155.86C872.995 155.782 872.963 155.685 872.976 155.587L872.07 115.162L873.602 115.129Z" fill="#E1E1E6" stroke="#263238" stroke-linecap="round" stroke-linejoin="round"/>
<path d="M904.98 116.797L905.13 162.742C905.146 162.856 905.108 162.972 905.026 163.063C904.944 163.155 904.823 163.216 904.689 163.233C904.558 163.217 904.44 163.159 904.357 163.072C904.275 162.985 904.233 162.874 904.242 162.763L903.189 116.851L904.98 116.797Z" fill="#E1E1E6" stroke="#263238" stroke-linecap="round" stroke-linejoin="round"/>
<path d="M889.271 120.272C900.363 120.272 909.355 118.229 909.355 115.71C909.355 113.191 900.363 111.149 889.271 111.149C878.178 111.149 869.186 113.191 869.186 115.71C869.186 118.229 878.178 120.272 889.271 120.272Z" fill="#E1E1E6" stroke="#263238" stroke-linecap="round" stroke-linejoin="round"/>
<path d="M879.49 154.429C879.49 154.429 878.438 155.927 879.192 156.672C879.946 157.416 880.695 157.12 880.618 157.869C880.542 158.618 879.341 161.157 878.289 163.848C877.238 166.538 879.418 169.229 881.449 168.485C883.48 167.74 883.254 160.26 883.552 158.914C883.85 157.569 884.08 157.344 884.003 156.075C883.927 154.806 883.854 153.46 882.875 153.308C881.896 153.155 879.941 153.909 879.49 154.429Z" fill="#E1E1E6" stroke="#263238" stroke-linecap="round" stroke-linejoin="round"/>
<path d="M882.717 166.422C881.363 165.911 879.287 166.014 878.118 166.13C878.51 167.821 880.013 169.01 881.449 168.485C882.049 168.265 882.442 167.467 882.717 166.422Z" fill="#61DCFB" stroke="#263238" stroke-linecap="round" stroke-linejoin="round"/>
<path d="M877.161 151.142C877.161 151.142 879.341 154.806 879.941 155.775C880.541 156.743 882.577 156.447 882.803 155.102C883.028 153.756 881.972 150.02 881.972 150.02L877.459 151.142H877.161Z" fill="#E1E1E6" stroke="#263238" stroke-linecap="round" stroke-linejoin="round"/>
<path d="M871.97 145.311C871.97 145.311 871.366 146.284 871.668 146.957C871.97 147.63 872.796 149.572 873.324 150.545C873.853 151.518 876.258 152.115 879.039 151.666C881.819 151.218 883.403 149.944 883.48 148.823C883.556 147.702 883.028 146.208 882.649 144.414C882.27 142.62 881.295 142.696 879.941 142.696C878.587 142.696 873.099 144.266 871.97 145.311Z" fill="#61DCFB" stroke="#263238" stroke-linecap="round" stroke-linejoin="round"/>
<path d="M880.095 123.335C880.135 121.496 881.205 120.59 881.286 119.33C881.414 117.664 881.275 115.988 880.875 114.365L878.817 111.571C872.896 111.647 868.653 111.746 868.585 111.768C868.36 111.84 868.206 113.114 868.057 114.159C868.057 114.159 865.543 114.477 865.995 121.429C866.058 122.397 868.594 133.605 868.779 134.884C869.908 142.692 872.422 146.603 872.422 146.603C872.422 146.603 872.647 147.576 875.581 147.352C878.515 147.128 881.449 145.186 881.449 145.186C881.449 145.186 879.941 129.986 880.095 123.335Z" fill="#263238" stroke="#263238" stroke-linecap="round" stroke-linejoin="round"/>
<path d="M873.171 114.365C875.152 114.466 877.118 114.767 879.039 115.262C881.598 116.011 886.111 117.504 887.163 117.504C888.214 117.504 887.917 113.616 887.917 112.871C887.917 112.127 874.376 111.674 872.72 111.674C871.063 111.674 873.171 114.365 873.171 114.365Z" fill="#E1E1E6" stroke="#263238" stroke-linecap="round" stroke-linejoin="round"/>
<path d="M887.917 112.871C887.917 112.871 886.711 113.468 886.26 115.71C885.809 117.953 885.208 119.15 886.111 119.747C887.014 120.343 890.927 120.792 891.527 120.195C892.128 119.599 893.784 116.607 894.086 114.665C894.389 112.723 887.917 112.871 887.917 112.871Z" fill="#61DCFB" stroke="#263238" stroke-linecap="round" stroke-linejoin="round"/>
<path d="M893.03 113.616C892.331 114.414 891.772 115.324 891.378 116.307C891.059 117.336 890.808 118.385 890.625 119.446C892.065 119.839 893.472 120.339 894.836 120.944C897.246 121.989 901.308 122.738 905.217 123.635C909.125 124.532 910.181 125.429 911.535 125.429C912.889 125.429 914.546 124.38 916.654 121.841C918.761 119.303 916.952 113.916 914.848 112.27C912.745 110.624 901.457 109.283 899.954 109.732C898.451 110.18 893.03 113.616 893.03 113.616Z" fill="#263238" stroke="#263238" stroke-linecap="round" stroke-linejoin="round"/>
<path d="M879.864 120.056C879.864 120.056 878.312 136.566 875.143 139.135" stroke="#49606B" stroke-width="0.5" stroke-linecap="round" stroke-linejoin="round"/>
<path d="M878.768 135.727C878.768 135.727 877.536 141.109 874.304 143.248" stroke="#49606B" stroke-width="0.5" stroke-linecap="round" stroke-linejoin="round"/>
<path d="M898.749 117.056C898.749 117.056 893.933 117.356 897.092 119.446C900.252 121.536 905.97 122.886 905.97 122.886" stroke="#49606B" stroke-width="0.5" stroke-linecap="round" stroke-linejoin="round"/>
<path d="M933.71 112.513L932.085 111.059L928.33 102.986C928.152 102.619 927.872 102.31 927.524 102.095C927.175 101.879 926.772 101.767 926.362 101.771H853.425C853.014 101.766 852.61 101.878 852.26 102.093C851.911 102.309 851.631 102.618 851.452 102.986L846.772 113.042L846 112.759V115.06L846.036 115.033C846.082 115.34 846.239 115.62 846.477 115.82C846.716 116.021 847.019 116.128 847.331 116.123H932.451C932.78 116.13 933.099 116.011 933.34 115.789C933.582 115.567 933.728 115.261 933.746 114.934L933.71 112.513Z" fill="#5E5E61" stroke="#263238" stroke-linecap="round" stroke-linejoin="round"/>
<path d="M932.451 114.019H847.332C847.121 114.028 846.911 113.983 846.723 113.889C846.534 113.795 846.373 113.654 846.254 113.481C846.135 113.308 846.062 113.108 846.042 112.899C846.022 112.691 846.056 112.48 846.14 112.288L851.452 100.883C851.63 100.514 851.91 100.204 852.26 99.9886C852.609 99.7732 853.013 99.6618 853.425 99.6676H926.362C926.773 99.6626 927.176 99.7744 927.525 99.9898C927.873 100.205 928.153 100.515 928.33 100.883L933.642 112.288C933.727 112.48 933.76 112.691 933.74 112.899C933.721 113.108 933.648 113.308 933.529 113.481C933.409 113.654 933.248 113.795 933.06 113.889C932.871 113.983 932.662 114.028 932.451 114.019V114.019Z" fill="#E1E1E6" stroke="#263238" stroke-linecap="round" stroke-linejoin="round"/>
<g style="mix-blend-mode:multiply" opacity="0.5">
<path d="M851.642 106.359C851.642 106.359 849.715 107.673 850.92 108.153C852.125 108.633 865.977 108.274 867.665 107.794C869.353 107.314 871.275 102.888 871.275 102.17C871.275 101.453 868.847 100.937 867.953 100.896C867.06 100.856 855.253 101.569 855.253 101.569L851.642 106.359Z" fill="#A8A8A8"/>
</g>
<g style="mix-blend-mode:multiply" opacity="0.5">
<path d="M920.544 108.633C923.271 108.633 925.482 107.721 925.482 106.597C925.482 105.472 923.271 104.561 920.544 104.561C917.817 104.561 915.607 105.472 915.607 106.597C915.607 107.721 917.817 108.633 920.544 108.633Z" fill="#A8A8A8"/>
</g>
<g style="mix-blend-mode:multiply" opacity="0.5">
<path d="M889.108 111.149C898.887 111.149 906.814 109.675 906.814 107.857C906.814 106.039 898.887 104.565 889.108 104.565C879.329 104.565 871.402 106.039 871.402 107.857C871.402 109.675 879.329 111.149 889.108 111.149Z" fill="#A8A8A8"/>
</g>
<path d="M916.934 98.5867C916.934 98.5867 916.609 97.2995 915.53 97.7301C914.451 98.1606 914.559 101.004 914.772 102.614C914.984 104.224 916.446 103.471 916.446 103.471V102.507C916.446 102.507 915.909 102.933 915.638 102.345C915.367 101.758 915.422 98.802 915.692 98.8558C915.963 98.9096 916.5 99.8201 916.5 99.8201C916.5 99.8201 916.663 99.7169 916.934 98.5867Z" fill="#61DCFB" stroke="#263238" stroke-linecap="round" stroke-linejoin="round"/>
<path d="M916.157 98.802V105.852C916.157 106.682 918.075 107.355 920.445 107.355C922.815 107.355 924.728 106.682 924.728 105.852V98.802H916.157Z" fill="#61DCFB" stroke="#263238" stroke-linecap="round" stroke-linejoin="round"/>
<path d="M924.728 98.8019C924.728 99.5195 922.81 100.098 920.445 100.098C918.08 100.098 916.157 99.5195 916.157 98.8019C916.157 98.0844 918.075 97.5058 920.445 97.5058C922.815 97.5058 924.728 98.0888 924.728 98.8019Z" fill="#E1E1E6" stroke="#263238" stroke-linecap="round" stroke-linejoin="round"/>
<path d="M924.169 98.802C924.169 99.4254 922.499 99.9277 920.445 99.9277C918.391 99.9277 916.717 99.4254 916.717 98.802C916.717 98.1785 918.387 97.6762 920.445 97.6762C922.503 97.6762 924.169 98.1785 924.169 98.802Z" fill="#E1E1E6" stroke="#263238" stroke-linecap="round" stroke-linejoin="round"/>
<path d="M917.57 99.5196C919.446 100.064 921.439 100.064 923.316 99.5196C921.439 98.9755 919.446 98.9755 917.57 99.5196V99.5196Z" fill="#263238" stroke="#263238" stroke-linecap="round" stroke-linejoin="round"/>
<path d="M851.109 102.022L851.163 104.435L867.525 104.597V101.807L851.109 102.022Z" fill="#E1E1E6" stroke="#263238" stroke-linecap="round" stroke-linejoin="round"/>
<path d="M867.525 104.597L869.903 99.5016V97.9992L867.416 102.291L867.525 104.597Z" fill="#E1E1E6" stroke="#263238" stroke-linecap="round" stroke-linejoin="round"/>
<path d="M851.109 104.22L851.163 106.637L867.525 106.799V104.009L851.109 104.22Z" fill="#E1E1E6" stroke="#263238" stroke-linecap="round" stroke-linejoin="round"/>
<path d="M867.525 106.799L869.903 101.699V100.197L867.416 104.489L867.525 106.799Z" fill="#E1E1E6" stroke="#263238" stroke-linecap="round" stroke-linejoin="round"/>
<path d="M857.428 95.9046C857.428 95.9046 857.807 95.1557 857.266 94.8327C856.724 94.5098 856.133 95.2812 855.808 95.5279C855.483 95.7746 848.681 100.251 848.464 100.95C848.248 101.65 848.464 103.193 849.922 103.363C851.38 103.534 852.675 102.56 853.325 102.399C853.975 102.237 854.228 102.184 854.228 102.184L858.71 96.1737L857.428 95.9046Z" fill="#61DCFB" stroke="#263238" stroke-linecap="round" stroke-linejoin="round"/>
<path d="M849.922 103.368C851.38 103.529 852.675 102.565 853.325 102.403C853.975 102.242 854.228 102.188 854.228 102.188L854.391 101.968L850.179 101.116C849.951 100.902 849.656 100.77 849.343 100.74C849.03 100.711 848.716 100.787 848.451 100.955C848.248 101.645 848.464 103.202 849.922 103.368Z" fill="#E1E1E6" stroke="#263238" stroke-linecap="round" stroke-linejoin="round"/>
<path d="M850.193 101.125H862.831C866.775 101.125 867.962 100.91 867.962 100.91L870.391 95.9182C870.391 95.9182 862.718 96.4025 860.348 96.2411C859.369 96.213 858.394 96.105 857.433 95.9182L850.193 101.125Z" fill="#61DCFB" stroke="#263238" stroke-linecap="round" stroke-linejoin="round"/>
<path d="M850.193 101.125L850.41 102.089C850.41 102.089 860.669 102.143 863.368 102.143C866.067 102.143 868.12 102.251 868.12 102.251L867.958 100.905L850.193 101.125Z" fill="#E1E1E6" stroke="#263238" stroke-linecap="round" stroke-linejoin="round"/>
<path d="M868.12 102.237L870.386 97.0842V95.9047L867.958 100.896L868.12 102.237Z" fill="#E1E1E6" stroke="#263238" stroke-linecap="round" stroke-linejoin="round"/>
<path d="M904.571 108.265H873.631C873.563 108.266 873.495 108.253 873.431 108.227C873.368 108.202 873.31 108.164 873.261 108.116C873.213 108.068 873.174 108.011 873.148 107.948C873.121 107.885 873.108 107.818 873.108 107.749C873.108 107.681 873.121 107.614 873.148 107.551C873.174 107.488 873.213 107.431 873.261 107.383C873.31 107.335 873.368 107.297 873.431 107.272C873.495 107.246 873.563 107.233 873.631 107.234H904.571C904.639 107.233 904.707 107.246 904.771 107.272C904.834 107.297 904.891 107.335 904.94 107.383C904.988 107.431 905.026 107.489 905.052 107.551C905.078 107.614 905.091 107.682 905.09 107.749C905.091 107.817 905.078 107.885 905.052 107.948C905.026 108.01 904.988 108.068 904.94 108.116C904.891 108.164 904.834 108.202 904.771 108.227C904.707 108.253 904.639 108.266 904.571 108.265V108.265Z" fill="#161E22" stroke="#263238" stroke-linecap="round" stroke-linejoin="round"/>
<path d="M904.869 107.225H873.401C873.286 107.225 873.175 107.181 873.091 107.103C873.007 107.025 872.957 106.917 872.95 106.803L871.239 86.3741C871.232 86.3108 871.238 86.2467 871.257 86.1859C871.276 86.1251 871.308 86.0691 871.351 86.0216C871.393 85.974 871.446 85.9361 871.504 85.9103C871.563 85.8844 871.627 85.8713 871.691 85.8718H906.584C906.648 85.8713 906.712 85.8844 906.77 85.9103C906.829 85.9361 906.881 85.974 906.924 86.0216C906.967 86.0691 906.999 86.1251 907.018 86.1859C907.037 86.2467 907.043 86.3108 907.036 86.3741L905.325 106.803C905.318 106.918 905.267 107.026 905.182 107.105C905.097 107.183 904.985 107.226 904.869 107.225Z" fill="#161E22" stroke="#263238" stroke-linecap="round" stroke-linejoin="round"/>
<path d="M922.819 80.9428C923.302 80.5686 923.641 80.0416 923.78 79.4493C923.882 79.0051 923.871 78.5428 923.749 78.1038" stroke="#6C7D85" stroke-linecap="round" stroke-linejoin="round"/>
<path d="M919.217 96.9362C919.217 96.9362 922.219 95.1422 921.239 93.0926C920.26 91.0429 916.947 89.684 916.947 86.4907C916.947 83.7369 919.894 82.7188 921.817 81.6155" stroke="#6C7D85" stroke-linecap="round" stroke-linejoin="round"/>
<path d="M921.989 96.8779C921.989 96.8779 923.663 95.7701 923.663 94.012C923.663 92.8325 922.395 92.0611 920.72 90.1639" stroke="#6C7D85" stroke-linecap="round" stroke-linejoin="round"/>
<path d="M919.795 89.0157C919.795 89.0157 918.698 88.1591 919.506 86.549" stroke="#6C7D85" stroke-linecap="round" stroke-linejoin="round"/>
<path fill-rule="evenodd" clip-rule="evenodd" d="M892.293 95.3917C893.716 95.8216 894.643 96.5149 894.643 97.2465C894.643 97.9759 893.72 98.6692 892.307 99.0991C892.637 100.526 892.494 101.663 891.853 102.028C891.703 102.113 891.53 102.154 891.338 102.154C890.712 102.154 889.891 101.717 889.061 100.956C888.232 101.722 887.411 102.163 886.784 102.163C886.593 102.163 886.42 102.122 886.272 102.037C885.629 101.672 885.483 100.533 885.811 99.1014C884.389 98.6714 883.461 97.9781 883.461 97.2465C883.461 96.5172 884.385 95.8261 885.802 95.3939C885.472 93.9668 885.615 92.83 886.256 92.4653C886.406 92.3798 886.579 92.3393 886.771 92.3393V92.337C887.398 92.337 888.218 92.7737 889.048 93.5346C889.877 92.7692 890.698 92.328 891.325 92.328V92.3303C891.513 92.3306 891.685 92.3711 891.833 92.4563C892.476 92.821 892.622 93.96 892.293 95.3917ZM891.322 92.83C890.848 92.8312 890.152 93.2048 889.41 93.8857C889.732 94.2166 890.051 94.5948 890.358 95.0112C890.871 95.0653 891.359 95.1486 891.806 95.2566C891.856 95.0293 891.897 94.8064 891.922 94.5948C892.027 93.7349 891.892 93.0663 891.582 92.8908C891.512 92.8525 891.427 92.8322 891.322 92.8322V92.83ZM888.685 93.888C887.942 93.2104 887.243 92.839 886.771 92.839V92.8412C886.666 92.8412 886.577 92.8592 886.509 92.8998C886.201 93.0776 886.069 93.7462 886.176 94.6061C886.203 94.8154 886.242 95.0338 886.294 95.2589C886.741 95.1486 887.229 95.0653 887.744 95.0112C888.047 94.5948 888.366 94.2189 888.685 93.888ZM891.368 96.6342C891.486 96.3349 891.591 96.0355 891.676 95.7451C891.377 95.6731 891.065 95.6145 890.741 95.5673C890.853 95.7383 890.965 95.9139 891.069 96.094C891.177 96.2741 891.275 96.4542 891.368 96.6342ZM890.082 99.0023C890.272 98.7345 890.454 98.4463 890.632 98.1424C890.803 97.8476 890.96 97.5459 891.104 97.2443C890.96 96.9426 890.803 96.6433 890.63 96.3484C890.452 96.0467 890.267 95.7608 890.078 95.493C889.741 95.466 889.396 95.4502 889.052 95.4502C888.706 95.4502 888.362 95.466 888.022 95.4952C887.833 95.7631 887.651 96.0512 887.473 96.3551C887.302 96.65 887.142 96.9516 887.001 97.2533C887.145 97.5549 887.302 97.8543 887.475 98.1492C887.653 98.4508 887.837 98.7367 888.027 99.0046C888.364 99.0316 888.708 99.0474 889.052 99.0474C889.399 99.0474 889.743 99.0316 890.082 99.0023ZM891.682 98.7457C891.596 98.4531 891.491 98.1515 891.368 97.8498C891.275 98.0299 891.177 98.2122 891.072 98.3923C890.967 98.5746 890.855 98.7525 890.743 98.9258C891.069 98.8785 891.384 98.8178 891.682 98.7457ZM888.423 99.5313C888.633 99.7947 888.845 100.036 889.057 100.252C889.267 100.036 889.479 99.7947 889.684 99.5313C889.476 99.5426 889.264 99.5471 889.05 99.5471C888.838 99.5471 888.628 99.5403 888.423 99.5313ZM886.427 98.748C886.725 98.82 887.037 98.8785 887.361 98.9258C887.249 98.7547 887.14 98.5791 887.033 98.3991C886.926 98.219 886.828 98.0389 886.734 97.8588C886.616 98.1582 886.511 98.4576 886.427 98.748ZM889.679 94.9617C889.469 94.6984 889.257 94.4575 889.045 94.2414C888.836 94.4575 888.624 94.6984 888.419 94.9617C888.626 94.9505 888.838 94.946 889.052 94.946C889.264 94.946 889.474 94.9527 889.679 94.9617ZM887.031 96.1008C887.135 95.9184 887.247 95.7406 887.359 95.5673C887.033 95.6145 886.718 95.6753 886.42 95.7451C886.506 96.0377 886.611 96.3394 886.734 96.641C886.828 96.4609 886.926 96.2808 887.031 96.1008ZM883.967 97.2465C883.967 97.5999 884.489 98.0457 885.296 98.3856C885.494 98.4688 885.709 98.5454 885.934 98.6152C886.062 98.1762 886.231 97.7193 886.44 97.251C886.228 96.7806 886.057 96.3214 885.928 95.8801C885.706 95.9499 885.492 96.0242 885.296 96.1075C884.489 96.4452 883.967 96.8931 883.967 97.2465ZM886.183 99.8983C886.078 100.758 886.212 101.427 886.522 101.602C886.591 101.641 886.677 101.661 886.78 101.663C887.254 101.663 887.951 101.289 888.694 100.607C888.373 100.276 888.054 99.8983 887.746 99.4818C887.233 99.4278 886.746 99.3445 886.299 99.2365C886.249 99.4638 886.208 99.6867 886.183 99.8983ZM891.596 101.593C891.904 101.415 892.036 100.747 891.929 99.887C891.904 99.6777 891.863 99.4593 891.81 99.232C891.363 99.3423 890.876 99.4255 890.361 99.4796C890.057 99.896 889.738 100.272 889.419 100.603C890.162 101.28 890.862 101.652 891.334 101.652C891.439 101.652 891.528 101.634 891.596 101.593ZM892.175 98.6129C892.396 98.5431 892.61 98.4688 892.806 98.3856C893.613 98.0479 894.135 97.5999 894.137 97.2465C894.137 96.8931 893.615 96.4474 892.808 96.1075C892.608 96.0242 892.394 95.9477 892.168 95.8779C892.04 96.3169 891.872 96.7738 891.662 97.242C891.874 97.7125 892.045 98.1717 892.175 98.6129ZM890.092 97.2465C890.092 97.8147 889.625 98.2753 889.05 98.2753C888.475 98.2753 888.008 97.8147 888.008 97.2465C888.008 96.6784 888.475 96.2178 889.05 96.2178C889.625 96.2178 890.092 96.6784 890.092 97.2465Z" fill="#61DCFB"/>
<path d="M519.313 123.526H506.737V76.604H519.313V123.526ZM506 64.4615C506 62.5823 506.622 61.0356 507.865 59.8214C509.137 58.6071 510.857 58 513.025 58C515.165 58 516.87 58.6071 518.142 59.8214C519.414 61.0356 520.05 62.5823 520.05 64.4615C520.05 66.3696 519.4 67.9308 518.099 69.1451C516.827 70.3593 515.136 70.9664 513.025 70.9664C510.915 70.9664 509.209 70.3593 507.908 69.1451C506.636 67.9308 506 66.3696 506 64.4615Z" fill="#E1E1E6"/>
<path d="M527.856 99.7181C527.856 92.5194 529.562 86.7228 532.973 82.3283C536.414 77.9339 541.039 75.7367 546.85 75.7367C551.996 75.7367 556 77.5003 558.863 81.0274L559.383 76.604H570.745V121.965C570.745 126.07 569.805 129.641 567.926 132.676C566.076 135.712 563.459 138.025 560.077 139.615C556.694 141.205 552.734 142 548.195 142C544.754 142 541.401 141.306 538.134 139.918C534.867 138.56 532.395 136.796 530.718 134.628L536.269 126.995C539.391 130.494 543.179 132.243 547.631 132.243C550.956 132.243 553.543 131.346 555.393 129.554C557.244 127.79 558.169 125.275 558.169 122.008V119.493C555.278 122.76 551.476 124.393 546.764 124.393C541.126 124.393 536.558 122.196 533.06 117.802C529.591 113.378 527.856 107.524 527.856 100.239V99.7181ZM540.389 100.629C540.389 104.879 541.242 108.218 542.947 110.646C544.653 113.046 546.995 114.246 549.973 114.246C553.789 114.246 556.521 112.815 558.169 109.953V90.221C556.492 87.3588 553.789 85.9277 550.059 85.9277C547.053 85.9277 544.682 87.1564 542.947 89.6138C541.242 92.0712 540.389 95.7429 540.389 100.629Z" fill="#E1E1E6"/>
<path d="M581.066 117.368C581.066 115.373 581.731 113.754 583.061 112.511C584.419 111.268 586.111 110.646 588.134 110.646C590.187 110.646 591.878 111.268 593.208 112.511C594.567 113.754 595.246 115.373 595.246 117.368C595.246 119.334 594.581 120.939 593.251 122.182C591.922 123.396 590.216 124.003 588.134 124.003C586.082 124.003 584.39 123.396 583.061 122.182C581.731 120.939 581.066 119.334 581.066 117.368Z" fill="#E1E1E6"/>
<path d="M617.796 76.604L618.187 82.0248C621.54 77.8327 626.036 75.7367 631.673 75.7367C636.646 75.7367 640.346 77.1967 642.775 80.1167C645.203 83.0367 646.446 87.4022 646.504 93.2132V123.526H633.972V93.5168C633.972 90.857 633.393 88.9344 632.237 87.7491C631.081 86.5348 629.158 85.9277 626.469 85.9277C622.942 85.9277 620.297 87.4311 618.533 90.4378V123.526H606.001V76.604H617.796Z" fill="#E1E1E6"/>
<path d="M677.641 124.393C670.76 124.393 665.151 122.283 660.815 118.062C656.507 113.841 654.353 108.218 654.353 101.193V99.9783C654.353 95.2659 655.264 91.0594 657.085 87.3588C658.907 83.6293 661.48 80.7672 664.804 78.7723C668.158 76.7486 671.974 75.7367 676.253 75.7367C682.671 75.7367 687.716 77.7605 691.388 81.808C695.088 85.8554 696.938 91.5942 696.938 99.0243V104.141H667.059C667.464 107.206 668.678 109.663 670.702 111.514C672.755 113.364 675.342 114.289 678.465 114.289C683.293 114.289 687.065 112.54 689.783 109.042L695.941 115.937C694.062 118.597 691.518 120.678 688.309 122.182C685.1 123.656 681.544 124.393 677.641 124.393ZM676.21 85.8844C673.723 85.8844 671.7 86.7228 670.138 88.3996C668.606 90.0764 667.623 92.476 667.19 95.5983H684.623V94.6009C684.565 91.8255 683.813 89.6861 682.368 88.1828C680.922 86.6505 678.869 85.8844 676.21 85.8844Z" fill="#E1E1E6"/>
<path d="M744.901 106.483L751.058 76.604H763.157L751.189 123.526H740.694L731.804 93.9938L722.914 123.526H712.463L700.494 76.604H712.593L718.708 106.44L727.294 76.604H736.358L744.901 106.483Z" fill="#E1E1E6"/>
<path d="M794.814 110.56C794.814 109.027 794.048 107.828 792.516 106.96C791.013 106.064 788.584 105.269 785.231 104.575C774.071 102.233 768.491 97.492 768.491 90.3511C768.491 86.1879 770.212 82.7186 773.652 79.9432C777.121 77.1389 781.646 75.7367 787.225 75.7367C793.181 75.7367 797.937 77.1389 801.493 79.9432C805.077 82.7475 806.87 86.3903 806.87 90.8715H794.337C794.337 89.079 793.759 87.6045 792.603 86.4481C791.446 85.2628 789.639 84.6701 787.182 84.6701C785.072 84.6701 783.438 85.1471 782.282 86.1012C781.125 87.0552 780.547 88.2695 780.547 89.7439C780.547 91.1316 781.198 92.2592 782.498 93.1265C783.828 93.9649 786.054 94.7021 789.177 95.3382C792.299 95.9453 794.93 96.6391 797.069 97.4197C803.69 99.8482 807 104.055 807 110.039C807 114.318 805.164 117.787 801.493 120.447C797.821 123.078 793.08 124.393 787.269 124.393C783.337 124.393 779.839 123.7 776.774 122.312C773.739 120.895 771.354 118.973 769.619 116.544C767.884 114.087 767.017 111.441 767.017 108.608H778.899C779.015 110.834 779.839 112.54 781.371 113.725C782.903 114.911 784.956 115.503 787.529 115.503C789.928 115.503 791.735 115.055 792.95 114.159C794.193 113.234 794.814 112.034 794.814 110.56Z" fill="#E1E1E6"/>
</svg>
